<?xml version="1.0" encoding="UTF-8" standalone="no"?>
<!-- Created with Inkscape (http://www.inkscape.org/) -->

<svg
   width="129.80464mm"
   height="118.94131mm"
   viewBox="0 0 129.80464 118.94131"
   version="1.1"
   id="svg1"
   sodipodi:docname="moneybagyo.svg"
   inkscape:version="1.2.2 (b0a84865, 2022-12-01)"
   xmlns:inkscape="http://www.inkscape.org/namespaces/inkscape"
   xmlns:sodipodi="http://sodipodi.sourceforge.net/DTD/sodipodi-0.dtd"
   xmlns="http://www.w3.org/2000/svg"
   xmlns:svg="http://www.w3.org/2000/svg">
  <sodipodi:namedview
     id="namedview1"
     pagecolor="#ffffff"
     bordercolor="#999999"
     borderopacity="1"
     inkscape:showpageshadow="2"
     inkscape:pageopacity="0"
     inkscape:pagecheckerboard="0"
     inkscape:deskcolor="#d1d1d1"
     inkscape:document-units="mm"
     showgrid="false"
     inkscape:zoom="0.52497882"
     inkscape:cx="112.38549"
     inkscape:cy="338.10888"
     inkscape:window-width="1867"
     inkscape:window-height="1027"
     inkscape:window-x="53"
     inkscape:window-y="25"
     inkscape:window-maximized="0"
     inkscape:current-layer="text1" />
  <defs
     id="defs1">
    <rect
       x="256.84772"
       y="156.96249"
       width="109.3981"
       height="80.859467"
       id="rect1" />
  </defs>
  <g
     inkscape:label="Layer 1"
     inkscape:groupmode="layer"
     id="layer1"
     transform="translate(-36.829343,-108.32945)">
    <g
       id="path1"
       inkscape:transform-center-y="-14.126017"
       transform="matrix(0.52767431,0,0,0.52767431,78.489397,134.57247)"
       inkscape:export-filename="moneybagyo.svg"
       inkscape:export-xdpi="25.4"
       inkscape:export-ydpi="25.4">
      <path
         style="color:#000000;fill:#f7e2bb;stroke-width:60.528;stroke-linejoin:round;-inkscape-stroke:none"
         d="M 136.78176,145.4093 H 44.046613 -48.688533 L -2.3209614,65.098308 44.046612,-15.212685 90.414184,65.098305 Z"
         id="path423" />
      <path
         style="color:#000000;fill:#f7e2bb;stroke-linejoin:round;-inkscape-stroke:none"
         d="M 37.753906,-44.8125 A 30.267026,30.267026 0 0 0 17.837891,-30.34375 L -28.53125,49.966797 -74.898437,130.27734 a 30.267026,30.267026 0 0 0 26.208984,45.39649 h 92.736328 92.734375 a 30.267026,30.267026 0 0 0 26.20898,-45.39649 L 116.62305,49.966797 70.255859,-30.34375 A 30.267026,30.267026 0 0 0 37.753906,-44.8125 Z m 6.292969,90.126953 20.158203,34.916016 20.158203,34.914061 H 44.046875 3.7304688 L 23.888672,80.230469 Z"
         id="path425" />
    </g>
    <g
       id="path1-0"
       inkscape:transform-center-x="2.9497988e-06"
       inkscape:transform-center-y="6.9434514"
       transform="matrix(-0.35638315,0,0,-0.25937116,117.42913,153.89403)">
      <path
         style="color:#000000;fill:#f7e2bb;stroke-width:60.528;stroke-linejoin:round;-inkscape-stroke:none"
         d="M 136.78176,145.4093 H 44.046613 -48.688533 L -2.3209614,65.098308 44.046612,-15.212685 90.414184,65.098305 Z"
         id="path429" />
      <path
         style="color:#000000;fill:#f7e2bb;stroke-linejoin:round;-inkscape-stroke:none"
         d="M 37.753906,-44.8125 A 30.267026,30.267026 0 0 0 17.837891,-30.34375 L -28.53125,49.966797 -74.898437,130.27734 a 30.267026,30.267026 0 0 0 26.208984,45.39649 h 92.736328 92.734375 a 30.267026,30.267026 0 0 0 26.20898,-45.39649 L 116.62305,49.966797 70.255859,-30.34375 A 30.267026,30.267026 0 0 0 37.753906,-44.8125 Z m 6.292969,90.126953 20.158203,34.916016 20.158203,34.914061 H 44.046875 3.7304688 L 23.888672,80.230469 Z"
         id="path431" />
    </g>
    <g
       aria-label="$"
       transform="matrix(1.4586187,0,0,1.4586187,-297.07831,-86.259106)"
       id="text1"
       style="font-size:53.3333px;font-family:Junegull;-inkscape-font-specification:Junegull;letter-spacing:0.47px;white-space:pre;shape-inside:url(#rect1);fill:#5a360f;stroke-width:228.767;stroke-linejoin:round">
      <path
         d="m 288.90097,191.78954 c 0,-8 -3.68,-12 -11.03999,-12 h -1.76 v -3.14666 h 5.33333 c 3.25333,0 4.96,-1.76 5.01333,-5.22666 v -0.21334 c 0,-3.36 -1.65333,-5.01333 -4.90667,-5.01333 h -5.43999 v -0.74666 c 0,-1.86667 -1.28,-2.56 -2.50667,-2.56 -1.28,0 -2.50666,0.69333 -2.50666,2.56 v 0.74666 h -1.01333 c -7.84,0 -11.78666,4 -11.78666,12.05333 0,7.73333 3.51999,11.94666 11.03999,11.94666 h 1.76 v 3.14666 h -7.25333 c -3.25333,0 -4.90666,1.70667 -5.01333,5.17333 v 0.21334 c 0,3.35999 1.65333,5.01333 4.96,5.01333 h 7.30666 v 0.85333 c 0,1.70666 1.22666,2.56 2.50666,2.56 1.22667,0 2.50667,-0.85334 2.50667,-2.56 v -0.85333 h 1.12 c 7.78666,0 11.67999,-4 11.67999,-11.94666 z m -12.79999,1.54666 v -3.14666 h 1.70666 c 1.33334,0 2.02667,0.53333 2.02667,1.6 0,1.01333 -0.69333,1.54666 -2.02667,1.54666 z m -5.01333,-16.69332 v 3.14666 h -1.70667 c -1.38666,0 -2.08,-0.53333 -2.08,-1.54666 0,-1.06667 0.69334,-1.6 2.08,-1.6 z"
         id="path416" />
    </g>
  </g>
</svg>
