<?xml version="1.0" encoding="UTF-8" standalone="no"?>
<!-- Created with Inkscape (http://www.inkscape.org/) -->

<svg
   width="122mm"
   height="31.769997mm"
   viewBox="0 0 122 31.769997"
   version="1.1"
   id="svg5"
   inkscape:version="1.2.2 (b0a84865, 2022-12-01)"
   sodipodi:docname="movelo-alt-9.svg"
   inkscape:export-filename="../../Programming/new-movelo-website/public/movelo-logo.svg"
   inkscape:export-xdpi="25.4"
   inkscape:export-ydpi="25.4"
   xmlns:inkscape="http://www.inkscape.org/namespaces/inkscape"
   xmlns:sodipodi="http://sodipodi.sourceforge.net/DTD/sodipodi-0.dtd"
   xmlns="http://www.w3.org/2000/svg"
   xmlns:svg="http://www.w3.org/2000/svg">
  <sodipodi:namedview
     id="namedview7"
     pagecolor="#ffffff"
     bordercolor="#666666"
     borderopacity="1.0"
     inkscape:showpageshadow="2"
     inkscape:pageopacity="0.0"
     inkscape:pagecheckerboard="0"
     inkscape:deskcolor="#d1d1d1"
     inkscape:document-units="mm"
     showgrid="false"
     inkscape:zoom="0.84096521"
     inkscape:cx="327.59976"
     inkscape:cy="464.34739"
     inkscape:window-width="1866"
     inkscape:window-height="1027"
     inkscape:window-x="54"
     inkscape:window-y="25"
     inkscape:window-maximized="0"
     inkscape:current-layer="svg5" />
  <defs
     id="defs2">
    <rect
       x="163.9614"
       y="166.48387"
       width="417.05051"
       height="253.92995"
       id="rect236" />
  </defs>
  <g
     aria-label="MOVELO"
     transform="matrix(0.72243942,0,0,0.72243942,-115.02564,-119.66084)"
     id="text234-2"
     style="font-weight:bold;font-size:40px;font-family:Junegull;-inkscape-font-specification:'Junegull Bold';white-space:pre;fill:#005b00;stroke:#047a08;stroke-width:11.9346">
    <g
       id="path9878">
      <path
         style="color:#000000;-inkscape-font-specification:'Junegull Bold';stroke:none;-inkscape-stroke:none"
         d="m 179.08094,191.20437 c 1.08,0 2,-0.4 2.92,-1.64 l 2.84,-3.76 v 12.04 c 0,2.56 1.76,3.88 3.84,3.88 2.12,0 3.92,-1.32 3.92,-3.88 v -20.44 c 0,-2.6 -2,-4.12 -4.12,-4.12 -1.4,0 -2.84,0.68 -3.84,1.96 l -5.56,7.08 -5.52,-7.08 c -1,-1.28 -2.48,-1.96 -3.88,-1.96 -2.12,0 -4.08,1.52 -4.08,4.12 v 20.44 c 0,2.56 1.8,3.88 3.92,3.88 2.04,0 3.84,-1.36 3.84,-3.88 v -12.04 l 2.88,3.76 c 0.84,1.08 1.8,1.64 2.84,1.64 z"
         id="path9921" />
      <path
         style="color:#000000;-inkscape-font-specification:'Junegull Bold';fill:#047a08;stroke:none;-inkscape-stroke:none"
         d="m 169.68164,167.31641 c -4.97229,0 -10.04883,4.48894 -10.04883,10.08789 v 20.43945 c 0,2.67858 1.13981,5.51701 3.11914,7.31641 1.97934,1.79939 4.47104,2.53125 6.76953,2.53125 2.34607,0 4.81653,-0.79712 6.7461,-2.58985 1.65525,-1.53786 2.56191,-3.82516 2.83203,-6.13086 0.26305,2.28915 1.14384,4.58976 2.82031,6.14649 1.95553,1.81585 4.45941,2.57422 6.76172,2.57422 2.29849,0 4.78824,-0.73186 6.76758,-2.53125 1.97933,-1.7994 3.11914,-4.63783 3.11914,-7.31641 V 177.4043 c 0,-5.66015 -5.1156,-10.08789 -10.08789,-10.08789 -3.33227,0 -6.46125,1.5918 -8.54102,4.2539 l -0.84179,1.07031 -0.83204,-1.06835 -0.002,-0.002 c -2.12729,-2.72293 -5.24976,-4.2539 -8.58203,-4.2539 z"
         id="path9923" />
    </g>
    <g
       id="path9880">
      <path
         style="color:#000000;-inkscape-font-specification:'Junegull Bold';stroke:none;-inkscape-stroke:none"
         d="m 195.40091,187.48437 c 0,7.96 6.4,14.36 14.36,14.36 7.96,0 14.4,-6.4 14.4,-14.36 0,-7.96 -6.44,-14.36 -14.4,-14.36 -7.96,0 -14.36,6.4 -14.36,14.36 z m 7.88,0.12 c 0,-3.64 2.92,-6.56 6.52,-6.56 3.6,0 6.56,2.92 6.56,6.56 0,3.64 -2.96,6.48 -6.56,6.48 -3.6,0 -6.52,-2.84 -6.52,-6.48 z"
         id="path9927" />
      <path
         style="color:#000000;-inkscape-font-specification:'Junegull Bold';fill:#047a08;stroke:none;-inkscape-stroke:none"
         d="m 209.76172,167.15625 c -11.15854,0 -20.32813,9.16958 -20.32813,20.32812 0,11.15855 9.16959,20.32813 20.32813,20.32813 11.15854,0 20.36719,-9.14959 20.36719,-20.32813 0,-11.17853 -9.20865,-20.32812 -20.36719,-20.32812 z m 0.0391,19.85547 c 0.37324,0 0.59375,0.18682 0.59375,0.5918 0,0.40498 -0.13211,0.51367 -0.59375,0.51367 -0.46164,0 -0.55273,-0.065 -0.55273,-0.51367 0,-0.4487 0.17949,-0.5918 0.55273,-0.5918 z"
         id="path9929" />
    </g>
    <g
       id="path9882">
      <path
         style="color:#000000;-inkscape-font-specification:'Junegull Bold';stroke:none;-inkscape-stroke:none"
         d="m 232.00087,175.76437 c -0.6,-1.72 -2.04,-2.48 -3.44,-2.48 -2.08,0 -4.2,1.56 -4.2,3.68 0,0.6 0.16,1.08 0.36,1.56 l 8.52,20.84 c 0.64,1.44 1.44,2.36 3.52,2.36 2.08,0 3,-0.92 3.68,-2.32 l 9.32,-20.88 c 0.28,-0.48 0.36,-0.8 0.36,-1.56 0,-2.24 -2.12,-3.68 -4.2,-3.68 -1.4,0 -2.8,0.76 -3.48,2.48 l -5.56,14.08 z"
         id="path9933" />
      <path
         style="color:#000000;-inkscape-font-specification:'Junegull Bold';fill:#047a08;stroke:none;-inkscape-stroke:none"
         d="m 228.56055,167.31641 c -2.53183,0 -4.79348,0.84956 -6.6875,2.41992 -1.89402,1.57036 -3.47852,4.17942 -3.47852,7.22851 0,1.66086 0.50972,3.11473 0.81836,3.85547 l 8.53906,20.88477 0.0352,0.082 c 0.50322,1.13225 1.34586,2.74592 3.06445,4.05078 1.7186,1.30486 3.99037,1.85352 5.91016,1.85352 1.91979,0 4.09814,-0.52341 5.80078,-1.72266 1.70264,-1.19925 2.66846,-2.76778 3.24609,-3.95703 l 0.043,-0.0879 9.35938,-20.9668 -0.29492,0.57422 c 0.61235,-1.04975 1.17187,-3.38765 1.17187,-4.56641 0,-3.00253 -1.58219,-5.73742 -3.53125,-7.3164 -1.94906,-1.57899 -4.21965,-2.33203 -6.63672,-2.33203 -3.37462,0 -7.0596,2.27999 -8.70898,5.7207 -1.64037,-3.52012 -5.3415,-5.7207 -8.65039,-5.7207 z"
         id="path9935" />
    </g>
    <g
       id="path9884">
      <path
         style="color:#000000;-inkscape-font-specification:'Junegull Bold';stroke:none;-inkscape-stroke:none"
         d="m 269.28085,201.56437 c 2.44,0 3.88,-1.8 3.88,-3.92 0,-2.12 -1.44,-3.88 -3.88,-3.88 h -9.32 v -2.72 h 7.76 c 2.24,0 3.56,-1.64 3.56,-3.56 0,-1.92 -1.32,-3.56 -3.56,-3.56 h -7.76 v -2.68 h 9.32 c 2.44,0 3.88,-1.8 3.88,-3.92 0,-2.12 -1.44,-3.92 -3.88,-3.92 h -13.2 c -2.56,0 -3.84,1.32 -3.84,3.92 v 20.32 c 0,2.6 1.28,3.92 3.84,3.92 z"
         id="path9939" />
      <path
         style="color:#000000;-inkscape-font-specification:'Junegull Bold';fill:#047a08;stroke:none;-inkscape-stroke:none"
         d="m 256.08008,167.4375 c -2.30563,0 -5.12204,0.70936 -7.14649,2.78125 -2.02444,2.07189 -2.66015,4.82622 -2.66015,7.10547 v 20.32031 c 0,2.27925 0.63571,5.03358 2.66015,7.10547 2.02445,2.07189 4.84086,2.78125 7.14649,2.78125 h 13.20117 c 5.37473,0 9.84766,-5.06455 9.84766,-9.88672 0,-2.32485 -1.09378,-4.67253 -2.78125,-6.50586 0.55323,-1.175 0.90039,-2.41385 0.90039,-3.6543 0,-1.22985 -0.33647,-2.46062 -0.88086,-3.62695 1.68302,-1.84398 2.76172,-4.20525 2.76172,-6.5332 0,-4.82217 -4.47293,-9.88672 -9.84766,-9.88672 z"
         id="path9941" />
    </g>
    <g
       id="path9886">
      <path
         style="color:#000000;-inkscape-font-specification:'Junegull Bold';stroke:none;-inkscape-stroke:none"
         d="m 288.16083,201.56437 c 2.4,0 3.68,-1.8 3.68,-3.92 0,-2.12 -1.28,-3.88 -3.68,-3.88 h -4.12 v -16.64 c 0,-2.44 -1.8,-3.84 -3.88,-3.84 -2.08,0 -3.84,1.4 -3.84,3.84 v 20.52 c 0,2.6 1.28,3.92 3.84,3.92 z"
         id="path9945" />
      <path
         style="color:#000000;-inkscape-font-specification:'Junegull Bold';fill:#047a08;stroke:none;-inkscape-stroke:none"
         d="m 280.16016,167.31641 c -2.37882,0 -4.86424,0.82511 -6.77735,2.61523 -1.9131,1.79012 -3.02929,4.5386 -3.02929,7.19336 v 20.51953 c 0,2.27925 0.63571,5.03358 2.66015,7.10547 2.02444,2.07189 4.84086,2.78125 7.14649,2.78125 h 8 c 2.69182,0 5.5277,-1.23646 7.25,-3.22266 1.72229,-1.98619 2.39843,-4.40309 2.39843,-6.66406 0,-2.26096 -0.68763,-4.69712 -2.42773,-6.67578 -1.33363,-1.51647 -3.32895,-2.36725 -5.37305,-2.77734 V 177.125 c 0,-2.68737 -1.15787,-5.4474 -3.08008,-7.2207 -1.9222,-1.77331 -4.38876,-2.58789 -6.76757,-2.58789 z"
         id="path9947" />
    </g>
    <g
       id="path9888">
      <path
         style="color:#000000;-inkscape-font-specification:'Junegull Bold';stroke:none;-inkscape-stroke:none"
         d="m 291.84073,187.48437 c 0,7.96 6.4,14.36 14.36,14.36 7.96,0 14.4,-6.4 14.4,-14.36 0,-7.96 -6.44,-14.36 -14.4,-14.36 -7.96,0 -14.36,6.4 -14.36,14.36 z m 7.88,0.12 c 0,-3.64 2.92,-6.56 6.52,-6.56 3.6,0 6.56,2.92 6.56,6.56 0,3.64 -2.96,6.48 -6.56,6.48 -3.6,0 -6.52,-2.84 -6.52,-6.48 z"
         id="path9951" />
      <path
         style="color:#000000;-inkscape-font-specification:'Junegull Bold';fill:#047a08;stroke:none;-inkscape-stroke:none"
         d="m 306.20117,167.15625 c -11.15854,0 -20.32812,9.16958 -20.32812,20.32812 0,11.15855 9.16958,20.32813 20.32812,20.32813 11.15854,0 20.36719,-9.14959 20.36719,-20.32813 0,-11.17853 -9.20865,-20.32812 -20.36719,-20.32812 z m 0.0391,19.85547 c 0.37324,0 0.59375,0.18682 0.59375,0.5918 0,0.40498 -0.1321,0.51367 -0.59375,0.51367 -0.46164,0 -0.55273,-0.065 -0.55273,-0.51367 0,-0.4487 0.1795,-0.5918 0.55273,-0.5918 z"
         id="path9953" />
    </g>
  </g>
  <g
     inkscape:groupmode="layer"
     id="layer2"
     inkscape:label="Layer 2"
     transform="translate(-37.202016,-75.075994)">
    <g
       id="rect1051">
      <path
         style="color:#000000;fill:#000000;stroke-linecap:square;stroke-linejoin:round;-inkscape-stroke:none;paint-order:stroke fill markers"
         d="m 73.970703,83.314453 c -3.930415,0 -7.564453,3.157474 -7.564453,7.341797 0,4.184322 3.63404,7.341797 7.564453,7.341797 3.930414,0 7.564453,-3.157473 7.564453,-7.341797 0,-4.184325 -3.634037,-7.341797 -7.564453,-7.341797 z m 0,5.560547 c 0.602725,0 1.558594,0.67812 1.558594,1.78125 0,1.103132 -0.955867,1.779297 -1.558594,1.779297 -0.602729,0 -1.556641,-0.676163 -1.556641,-1.779297 0,-1.103131 0.953914,-1.78125 1.556641,-1.78125 z"
         id="path9957" />
      <path
         style="color:#000000;fill:#f7e2bb;stroke-width:9.12199;stroke-linecap:square;stroke-linejoin:round;-inkscape-stroke:none;paint-order:stroke fill markers"
         d="m 73.970937,87.875244 c 1.663845,0 3.003331,1.240265 3.003331,2.780862 0,1.540598 -1.339486,2.780862 -3.003331,2.780862 -1.663846,0 -3.003331,-1.240264 -3.003331,-2.780862 0,-1.540597 1.339485,-2.780862 3.003331,-2.780862 z"
         id="path9959" />
    </g>
    <g
       id="rect1051-3">
      <path
         style="color:#000000;fill:#000000;stroke-linecap:square;stroke-linejoin:round;-inkscape-stroke:none;paint-order:stroke fill markers"
         d="m 143.71484,83.425781 c -3.93041,0 -7.56445,3.157465 -7.56445,7.341797 0,4.184333 3.63404,7.341797 7.56445,7.341797 3.93042,0 7.56446,-3.157464 7.56446,-7.341797 0,-4.184332 -3.63404,-7.341797 -7.56446,-7.341797 z m 0,5.560547 c 0.60272,0 1.5586,0.678108 1.5586,1.78125 0,1.10314 -0.95588,1.779297 -1.5586,1.779297 -0.60273,0 -1.55664,-0.676157 -1.55664,-1.779297 0,-1.103142 0.9539,-1.78125 1.55664,-1.78125 z"
         id="path9963" />
      <path
         style="color:#000000;fill:#f7e2bb;stroke-width:9.12199;stroke-linecap:square;stroke-linejoin:round;-inkscape-stroke:none;paint-order:stroke fill markers"
         d="m 143.71496,87.986481 c 1.66384,0 3.00333,1.240264 3.00333,2.780862 0,1.540597 -1.33949,2.780862 -3.00333,2.780862 -1.66385,0 -3.00334,-1.240265 -3.00334,-2.780862 0,-1.540598 1.33949,-2.780862 3.00334,-2.780862 z"
         id="path9965" />
    </g>
    <g
       aria-label="MOVELO"
       transform="matrix(0.72243942,0,0,0.72243942,-77.823621,-44.58485)"
       id="text438"
       style="font-weight:bold;font-size:40px;font-family:Junegull;-inkscape-font-specification:'Junegull Bold';white-space:pre;fill:#5a0d0f;stroke:#5a360f;stroke-width:8.05881">
      <g
         id="path9893">
        <path
           style="color:#000000;-inkscape-font-specification:'Junegull Bold';stroke:none;-inkscape-stroke:none"
           d="m 179.08094,191.20437 c 1.08,0 2,-0.4 2.92,-1.64 l 2.84,-3.76 v 12.04 c 0,2.56 1.76,3.88 3.84,3.88 2.12,0 3.92,-1.32 3.92,-3.88 v -20.44 c 0,-2.6 -2,-4.12 -4.12,-4.12 -1.4,0 -2.84,0.68 -3.84,1.96 l -5.56,7.08 -5.52,-7.08 c -1,-1.28 -2.48,-1.96 -3.88,-1.96 -2.12,0 -4.08,1.52 -4.08,4.12 v 20.44 c 0,2.56 1.8,3.88 3.92,3.88 2.04,0 3.84,-1.36 3.84,-3.88 v -12.04 l 2.88,3.76 c 0.84,1.08 1.8,1.64 2.84,1.64 z"
           id="path9969" />
        <path
           style="color:#000000;-inkscape-font-specification:'Junegull Bold';fill:#5a360f;stroke:none;-inkscape-stroke:none"
           d="m 169.68164,169.25586 c -4.046,0 -8.10937,3.52341 -8.10937,8.14844 v 20.43945 c 0,2.22439 0.91368,4.45669 2.48242,5.88281 1.56874,1.42613 3.5705,2.02735 5.46679,2.02735 1.91543,0 3.89585,-0.64902 5.42774,-2.07227 1.53189,-1.42324 2.4414,-3.61851 2.4414,-5.83789 v -3.07813 c 0.56721,0.15969 1.07873,0.46875 1.68946,0.46875 0.54166,0 1.14493,-0.30623 1.73242,-0.4746 v 3.08398 c 0,2.2034 0.87799,4.41628 2.42578,5.85352 1.54779,1.43723 3.55099,2.05664 5.44336,2.05664 1.89629,0 3.89611,-0.60122 5.46484,-2.02735 1.56874,-1.42612 2.48438,-3.65842 2.48438,-5.88281 V 177.4043 c 0,-4.66636 -4.10439,-8.14844 -8.15039,-8.14844 -2.7011,0 -5.27874,1.29221 -7.00781,3.5 l -0.004,0.004 -0.004,0.004 -2.37304,3.02344 -2.35352,-3.02149 -0.002,-0.002 c -1.7612,-2.25434 -4.34993,-3.50781 -7.05469,-3.50781 z"
           id="path9971" />
      </g>
      <g
         id="path9895">
        <path
           style="color:#000000;-inkscape-font-specification:'Junegull Bold';stroke:none;-inkscape-stroke:none"
           d="m 195.40091,187.48437 c 0,7.96 6.4,14.36 14.36,14.36 7.96,0 14.4,-6.4 14.4,-14.36 0,-7.96 -6.44,-14.36 -14.4,-14.36 -7.96,0 -14.36,6.4 -14.36,14.36 z m 7.88,0.12 c 0,-3.64 2.92,-6.56 6.52,-6.56 3.6,0 6.56,2.92 6.56,6.56 0,3.64 -2.96,6.48 -6.56,6.48 -3.6,0 -6.52,-2.84 -6.52,-6.48 z"
           id="path9975" />
        <path
           style="color:#000000;-inkscape-font-specification:'Junegull Bold';fill:#5a360f;stroke:none;-inkscape-stroke:none"
           d="m 209.76172,169.0957 c -10.11981,0 -18.39063,8.26887 -18.39063,18.38867 0,10.11981 8.27082,18.38868 18.39063,18.38868 10.1198,0 18.42773,-8.25537 18.42773,-18.38868 0,-10.1333 -8.30793,-18.38867 -18.42773,-18.38867 z m 0.0391,15.97852 c 1.42114,0 2.53125,1.07374 2.53125,2.5293 0,1.45555 -1.05042,2.45117 -2.53125,2.45117 -1.48083,0 -2.49023,-0.9661 -2.49023,-2.45117 0,-1.48508 1.0691,-2.5293 2.49023,-2.5293 z"
           id="path9977" />
      </g>
      <g
         id="path9897">
        <path
           style="color:#000000;-inkscape-font-specification:'Junegull Bold';stroke:none;-inkscape-stroke:none"
           d="m 232.00087,175.76437 c -0.6,-1.72 -2.04,-2.48 -3.44,-2.48 -2.08,0 -4.2,1.56 -4.2,3.68 0,0.6 0.16,1.08 0.36,1.56 l 8.52,20.84 c 0.64,1.44 1.44,2.36 3.52,2.36 2.08,0 3,-0.92 3.68,-2.32 l 9.32,-20.88 c 0.28,-0.48 0.36,-0.8 0.36,-1.56 0,-2.24 -2.12,-3.68 -4.2,-3.68 -1.4,0 -2.8,0.76 -3.48,2.48 l -5.56,14.08 z"
           id="path9981" />
        <path
           style="color:#000000;-inkscape-font-specification:'Junegull Bold';fill:#5a360f;stroke:none;-inkscape-stroke:none"
           d="m 228.56055,169.25586 c -2.04735,0 -3.91569,0.69761 -5.45118,1.9707 -1.53548,1.2731 -2.77734,3.33515 -2.77734,5.73828 0,1.31634 0.39656,2.45331 0.66992,3.10938 l 8.53125,20.87109 0.0254,0.0547 c 0.44372,0.99837 1.12901,2.27872 2.46485,3.29297 1.33584,1.01425 3.1042,1.46094 4.73828,1.46094 1.63408,0 3.34716,-0.42978 4.68359,-1.3711 1.33644,-0.94131 2.11868,-2.18838 2.61914,-3.21875 l 0.0293,-0.0586 9.3457,-20.93945 -0.19726,0.38867 c 0.50442,-0.86472 0.9082,-2.54708 0.9082,-3.58985 0,-2.39118 -1.23985,-4.5365 -2.8125,-5.81054 -1.57265,-1.27405 -3.44811,-1.89844 -5.41797,-1.89844 -2.85826,0 -6.00055,1.92625 -7.22656,5.02734 l -1.56641,3.9668 -1.32031,-3.80859 -0.002,-0.004 c -1.13881,-3.26457 -4.38589,-5.18164 -7.24414,-5.18164 z"
           id="path9983" />
      </g>
      <g
         id="path9899">
        <path
           style="color:#000000;-inkscape-font-specification:'Junegull Bold';stroke:none;-inkscape-stroke:none"
           d="m 269.28085,201.56437 c 2.44,0 3.88,-1.8 3.88,-3.92 0,-2.12 -1.44,-3.88 -3.88,-3.88 h -9.32 v -2.72 h 7.76 c 2.24,0 3.56,-1.64 3.56,-3.56 0,-1.92 -1.32,-3.56 -3.56,-3.56 h -7.76 v -2.68 h 9.32 c 2.44,0 3.88,-1.8 3.88,-3.92 0,-2.12 -1.44,-3.92 -3.88,-3.92 h -13.2 c -2.56,0 -3.84,1.32 -3.84,3.92 v 20.32 c 0,2.6 1.28,3.92 3.84,3.92 z"
           id="path9987" />
        <path
           style="color:#000000;-inkscape-font-specification:'Junegull Bold';fill:#5a360f;stroke:none;-inkscape-stroke:none"
           d="m 256.08008,169.375 c -1.97255,0 -4.18688,0.58747 -5.76172,2.19922 -1.57484,1.61175 -2.10742,3.78876 -2.10742,5.75 v 20.32031 c 0,1.96124 0.53258,4.13825 2.10742,5.75 1.57484,1.61175 3.78917,2.19922 5.76172,2.19922 h 13.20117 c 4.42167,0 7.9082,-4.00459 7.9082,-7.94922 0,-2.36079 -1.34847,-4.61963 -3.30273,-6.14062 0.82804,-1.2301 1.42383,-2.59608 1.42383,-4.01954 0,-1.41351 -0.58879,-2.76985 -1.40625,-3.99414 1.95144,-1.53247 3.28515,-3.80493 3.28515,-6.16601 0,-3.94463 -3.48653,-7.94922 -7.9082,-7.94922 z"
           id="path9989" />
      </g>
      <g
         id="path9901">
        <path
           style="color:#000000;-inkscape-font-specification:'Junegull Bold';stroke:none;-inkscape-stroke:none"
           d="m 288.16083,201.56437 c 2.4,0 3.68,-1.8 3.68,-3.92 0,-2.12 -1.28,-3.88 -3.68,-3.88 h -4.12 v -16.64 c 0,-2.44 -1.8,-3.84 -3.88,-3.84 -2.08,0 -3.84,1.4 -3.84,3.84 v 20.52 c 0,2.6 1.28,3.92 3.84,3.92 z"
           id="path9993" />
        <path
           style="color:#000000;-inkscape-font-specification:'Junegull Bold';fill:#5a360f;stroke:none;-inkscape-stroke:none"
           d="m 280.16016,169.25586 c -1.94404,0 -3.93398,0.67031 -5.45313,2.0918 -1.51914,1.42148 -2.41601,3.58852 -2.41601,5.77734 v 20.51953 c 0,1.96124 0.53258,4.13825 2.10742,5.75 1.57484,1.61175 3.78916,2.19922 5.76172,2.19922 h 8 c 2.20735,0 4.42083,-0.98132 5.78515,-2.55469 1.36433,-1.57337 1.92578,-3.52358 1.92578,-5.39453 0,-1.87095 -0.56896,-3.83145 -1.94531,-5.39648 -1.37634,-1.56504 -3.58066,-2.51367 -5.76562,-2.51368 h -0.0899 V 177.125 c 0,-2.21084 -0.92849,-4.38674 -2.45703,-5.79688 -1.52854,-1.41013 -3.50909,-2.07226 -5.45312,-2.07226 z"
           id="path9995" />
      </g>
      <g
         id="path9903">
        <path
           style="color:#000000;-inkscape-font-specification:'Junegull Bold';stroke:none;-inkscape-stroke:none"
           d="m 291.84073,187.48437 c 0,7.96 6.4,14.36 14.36,14.36 7.96,0 14.4,-6.4 14.4,-14.36 0,-7.96 -6.44,-14.36 -14.4,-14.36 -7.96,0 -14.36,6.4 -14.36,14.36 z m 7.88,0.12 c 0,-3.64 2.92,-6.56 6.52,-6.56 3.6,0 6.56,2.92 6.56,6.56 0,3.64 -2.96,6.48 -6.56,6.48 -3.6,0 -6.52,-2.84 -6.52,-6.48 z"
           id="path9999" />
        <path
           style="color:#000000;-inkscape-font-specification:'Junegull Bold';fill:#5a360f;stroke:none;-inkscape-stroke:none"
           d="m 306.20117,169.0957 c -10.1198,0 -18.39062,8.26887 -18.39062,18.38867 0,10.11981 8.27082,18.38868 18.39062,18.38868 10.11981,0 18.42969,-8.25537 18.42969,-18.38868 0,-10.1333 -8.30988,-18.38867 -18.42969,-18.38867 z m 0.0391,15.97852 c 1.42114,0 2.53125,1.07374 2.53125,2.5293 0,1.45555 -1.05042,2.45117 -2.53125,2.45117 -1.48083,0 -2.49023,-0.9661 -2.49023,-2.45117 0,-1.48508 1.0691,-2.5293 2.49023,-2.5293 z"
           id="path10001" />
      </g>
    </g>
  </g>
  <g
     inkscape:label="Layer 1"
     inkscape:groupmode="layer"
     id="layer1"
     transform="translate(-37.202016,-75.075994)">
    <g
       aria-label="MOVELO"
       transform="matrix(0.72243943,0,0,0.72243943,-77.823622,-44.584851)"
       id="text234"
       style="font-weight:bold;font-size:40px;line-height:1.25;font-family:Junegull;-inkscape-font-specification:'Junegull Bold';white-space:pre;shape-inside:url(#rect236);display:inline;fill:#f7e2bb">
      <path
         d="m 179.08094,191.20437 c 1.08,0 2,-0.4 2.92,-1.64 l 2.84,-3.76 v 12.04 c 0,2.56 1.76,3.88 3.84,3.88 2.12,0 3.92,-1.32 3.92,-3.88 v -20.44 c 0,-2.6 -2,-4.12 -4.12,-4.12 -1.4,0 -2.84,0.68 -3.84,1.96 l -5.56,7.08 -5.52,-7.08 c -1,-1.28 -2.48,-1.96 -3.88,-1.96 -2.12,0 -4.08,1.52 -4.08,4.12 v 20.44 c 0,2.56 1.8,3.88 3.92,3.88 2.04,0 3.84,-1.36 3.84,-3.88 v -12.04 l 2.88,3.76 c 0.84,1.08 1.8,1.64 2.84,1.64 z"
         id="path9906" />
      <path
         d="m 195.40091,187.48437 c 0,7.96 6.4,14.36 14.36,14.36 7.96,0 14.4,-6.4 14.4,-14.36 0,-7.96 -6.44,-14.36 -14.4,-14.36 -7.96,0 -14.36,6.4 -14.36,14.36 z m 7.88,0.12 c 0,-3.64 2.92,-6.56 6.52,-6.56 3.6,0 6.56,2.92 6.56,6.56 0,3.64 -2.96,6.48 -6.56,6.48 -3.6,0 -6.52,-2.84 -6.52,-6.48 z"
         id="path9908" />
      <path
         d="m 232.00087,175.76437 c -0.6,-1.72 -2.04,-2.48 -3.44,-2.48 -2.08,0 -4.2,1.56 -4.2,3.68 0,0.6 0.16,1.08 0.36,1.56 l 8.52,20.84 c 0.64,1.44 1.44,2.36 3.52,2.36 2.08,0 3,-0.92 3.68,-2.32 l 9.32,-20.88 c 0.28,-0.48 0.36,-0.8 0.36,-1.56 0,-2.24 -2.12,-3.68 -4.2,-3.68 -1.4,0 -2.8,0.76 -3.48,2.48 l -5.56,14.08 z"
         id="path9910" />
      <path
         d="m 269.28085,201.56437 c 2.44,0 3.88,-1.8 3.88,-3.92 0,-2.12 -1.44,-3.88 -3.88,-3.88 h -9.32 v -2.72 h 7.76 c 2.24,0 3.56,-1.64 3.56,-3.56 0,-1.92 -1.32,-3.56 -3.56,-3.56 h -7.76 v -2.68 h 9.32 c 2.44,0 3.88,-1.8 3.88,-3.92 0,-2.12 -1.44,-3.92 -3.88,-3.92 h -13.2 c -2.56,0 -3.84,1.32 -3.84,3.92 v 20.32 c 0,2.6 1.28,3.92 3.84,3.92 z"
         id="path9912" />
      <path
         d="m 288.16083,201.56437 c 2.4,0 3.68,-1.8 3.68,-3.92 0,-2.12 -1.28,-3.88 -3.68,-3.88 h -4.12 v -16.64 c 0,-2.44 -1.8,-3.84 -3.88,-3.84 -2.08,0 -3.84,1.4 -3.84,3.84 v 20.52 c 0,2.6 1.28,3.92 3.84,3.92 z"
         id="path9914" />
      <path
         d="m 291.84073,187.48437 c 0,7.96 6.4,14.36 14.36,14.36 7.96,0 14.4,-6.4 14.4,-14.36 0,-7.96 -6.44,-14.36 -14.4,-14.36 -7.96,0 -14.36,6.4 -14.36,14.36 z m 7.88,0.12 c 0,-3.64 2.92,-6.56 6.52,-6.56 3.6,0 6.56,2.92 6.56,6.56 0,3.64 -2.96,6.48 -6.56,6.48 -3.6,0 -6.52,-2.84 -6.52,-6.48 z"
         id="path9916" />
    </g>
  </g>
</svg>
